<svg width="138" height="138" viewBox="0 0 138 138" fill="none" xmlns="http://www.w3.org/2000/svg">
<path opacity="0.4" d="M38.2894 55.6935C38.4114 55.5924 38.5094 55.4654 38.5763 55.3218C38.6433 55.1781 38.6775 55.0214 38.6764 54.8629C38.6769 54.7039 38.6425 54.5468 38.5756 54.4025C38.5087 54.2582 38.411 54.1304 38.2894 54.028C36.287 52.3588 34.6862 50.2601 33.6058 47.8876C33.5185 47.6981 33.3787 47.5375 33.203 47.425C33.0273 47.3125 32.823 47.2527 32.6143 47.2527H25.5129C23.2062 47.2527 20.9939 48.169 19.3628 49.8001C17.7318 51.4312 16.8154 53.6434 16.8154 55.9501C16.8154 58.2568 17.7318 60.469 19.3628 62.1001C20.9939 63.7312 23.2062 64.6476 25.5129 64.6476H31.8316C32.0644 64.6475 32.291 64.5726 32.4781 64.434C32.6652 64.2955 32.8029 64.1005 32.8709 63.8778C33.856 60.6871 35.7367 57.8464 38.2894 55.6935V55.6935Z" fill="#302CFF"/>
<path opacity="0.4" d="M38.3024 83.96C38.424 83.8584 38.5217 83.7314 38.5887 83.5878C38.6558 83.4443 38.6906 83.2879 38.6906 83.1294C38.6906 82.971 38.6558 82.8146 38.5887 82.671C38.5217 82.5275 38.424 82.4005 38.3024 82.2988C36.4806 80.7858 34.9881 78.9155 33.917 76.8033C32.846 74.6911 32.2191 72.3819 32.0751 70.0181C32.0584 69.7404 31.9359 69.4797 31.7329 69.2896C31.5299 69.0995 31.2617 68.9945 30.9835 68.9961H25.5129C23.2062 68.9961 20.9939 69.9124 19.3628 71.5435C17.7318 73.1746 16.8154 75.3868 16.8154 77.6935C16.8154 80.0002 17.7318 82.2125 19.3628 83.8436C20.9939 85.4746 23.2062 86.391 25.5129 86.391H35.4497C35.608 86.3908 35.7643 86.3561 35.9078 86.2892C36.0512 86.2224 36.1784 86.125 36.2803 86.0039C36.9009 85.2718 37.5769 84.5884 38.3024 83.96V83.96Z" fill="#302CFF"/>
<path opacity="0.4" d="M32.0359 97.2627C32.038 95.528 32.3034 93.8036 32.8231 92.1486C32.8743 91.9864 32.8864 91.8143 32.8584 91.6466C32.8305 91.4788 32.7632 91.32 32.6622 91.1832C32.5607 91.0484 32.4293 90.939 32.2784 90.8635C32.1275 90.7881 31.9611 90.7486 31.7924 90.7483H25.5129C23.2062 90.7483 20.9939 91.6646 19.3628 93.2957C17.7318 94.9268 16.8154 97.139 16.8154 99.4457C16.8154 101.752 17.7318 103.965 19.3628 105.596C20.9939 107.227 23.2062 108.143 25.5129 108.143H33.8407C34.0355 108.142 34.2265 108.089 34.3938 107.989C34.5612 107.89 34.6989 107.747 34.7925 107.576C34.8861 107.405 34.9323 107.213 34.9263 107.018C34.9203 106.823 34.8622 106.634 34.7582 106.469C32.9853 103.725 32.0402 100.529 32.0359 97.2627Z" fill="#302CFF"/>
<path opacity="0.4" d="M97.5355 54.028C97.4139 54.1304 97.3161 54.2582 97.2493 54.4025C97.1824 54.5468 97.148 54.7039 97.1485 54.8629C97.1474 55.0214 97.1816 55.1781 97.2485 55.3218C97.3155 55.4654 97.4135 55.5924 97.5355 55.6935C100.088 57.8464 101.969 60.6871 102.954 63.8778C103.022 64.1005 103.16 64.2955 103.347 64.434C103.534 64.5726 103.761 64.6475 103.993 64.6476H112.486C114.793 64.6476 117.005 63.7312 118.636 62.1001C120.267 60.469 121.184 58.2568 121.184 55.9501C121.184 53.6434 120.267 51.4312 118.636 49.8001C117.005 48.169 114.793 47.2527 112.486 47.2527H103.211C103.002 47.2527 102.798 47.3125 102.622 47.425C102.446 47.5375 102.306 47.6981 102.219 47.8876C101.139 50.2601 99.5379 52.3588 97.5355 54.028V54.028Z" fill="#302CFF"/>
<path opacity="0.4" d="M97.5318 82.2988C97.4116 82.4013 97.3151 82.5286 97.2489 82.672C97.1827 82.8154 97.1484 82.9715 97.1484 83.1294C97.1484 83.2874 97.1827 83.4434 97.2489 83.5868C97.3151 83.7302 97.4116 83.8576 97.5318 83.96C98.2573 84.5884 98.9333 85.2717 99.5539 86.0039C99.6559 86.125 99.783 86.2224 99.9265 86.2892C100.07 86.3561 100.226 86.3908 100.385 86.391H112.487C114.794 86.391 117.006 85.4746 118.637 83.8435C120.268 82.2125 121.184 80.0002 121.184 77.6935C121.184 75.3868 120.268 73.1746 118.637 71.5435C117.006 69.9124 114.794 68.9961 112.487 68.9961H104.842C104.565 68.9967 104.299 69.1027 104.098 69.2926C103.897 69.4825 103.776 69.7419 103.759 70.018C103.615 72.3819 102.988 74.6911 101.917 76.8033C100.846 78.9155 99.3536 80.7858 97.5318 82.2988Z" fill="#302CFF"/>
<path opacity="0.4" d="M103.789 97.2626C103.783 100.526 102.838 103.719 101.067 106.46C100.963 106.625 100.905 106.814 100.899 107.009C100.893 107.204 100.939 107.397 101.033 107.567C101.126 107.738 101.264 107.881 101.431 107.981C101.599 108.08 101.79 108.133 101.985 108.134H112.487C114.793 108.134 117.006 107.218 118.637 105.587C120.268 103.956 121.184 101.744 121.184 99.4369C121.184 97.1302 120.268 94.918 118.637 93.2869C117.006 91.6558 114.793 90.7395 112.487 90.7395H104.042C103.873 90.7398 103.706 90.7793 103.556 90.8547C103.405 90.9302 103.273 91.0396 103.172 91.1744C103.071 91.3112 103.003 91.47 102.976 91.6378C102.948 91.8056 102.96 91.9776 103.011 92.1398C103.528 93.7981 103.791 95.5254 103.789 97.2626V97.2626Z" fill="#302CFF"/>
<path d="M49.4304 51.601H86.3945C89.2779 51.601 92.0431 50.4556 94.082 48.4167C96.1209 46.3779 97.2663 43.6126 97.2663 40.7292C97.2663 37.8458 96.1209 35.0806 94.082 33.0417C92.0431 31.0028 89.2779 29.8574 86.3945 29.8574H49.4304C46.547 29.8574 43.7817 31.0028 41.7429 33.0417C39.704 35.0806 38.5586 37.8458 38.5586 40.7292C38.5586 43.6126 39.704 46.3779 41.7429 48.4167C43.7817 50.4556 46.547 51.601 49.4304 51.601V51.601ZM64.6509 36.3805C65.511 36.3805 66.3518 36.6355 67.0669 37.1134C67.7821 37.5912 68.3394 38.2704 68.6686 39.065C68.9977 39.8597 69.0838 40.734 68.9161 41.5776C68.7483 42.4212 68.3341 43.196 67.7259 43.8042C67.1177 44.4124 66.3429 44.8266 65.4993 44.9944C64.6557 45.1622 63.7813 45.076 62.9867 44.7469C62.1921 44.4178 61.5129 43.8604 61.0351 43.1452C60.5572 42.4301 60.3022 41.5893 60.3022 40.7292C60.3022 39.5759 60.7603 38.4698 61.5759 37.6542C62.3914 36.8387 63.4975 36.3805 64.6509 36.3805V36.3805ZM50.5176 36.3805C51.3777 36.3805 52.2184 36.6355 52.9336 37.1134C53.6487 37.5912 54.2061 38.2704 54.5353 39.065C54.8644 39.8597 54.9505 40.734 54.7827 41.5776C54.6149 42.4212 54.2007 43.196 53.5926 43.8042C52.9844 44.4124 52.2095 44.8266 51.366 44.9944C50.5224 45.1622 49.648 45.076 48.8534 44.7469C48.0588 44.4178 47.3796 43.8604 46.9017 43.1452C46.4239 42.4301 46.1688 41.5893 46.1688 40.7292C46.1688 39.5759 46.627 38.4698 47.4426 37.6542C48.2581 36.8387 49.3642 36.3805 50.5176 36.3805V36.3805Z" fill="#302CFF"/>
<path d="M49.4304 79.8675H86.3945C89.2779 79.8675 92.0431 78.7221 94.082 76.6832C96.1209 74.6444 97.2663 71.8791 97.2663 68.9957C97.2663 66.1123 96.1209 63.347 94.082 61.3082C92.0431 59.2693 89.2779 58.1239 86.3945 58.1239H49.4304C46.547 58.1239 43.7817 59.2693 41.7429 61.3082C39.704 63.347 38.5586 66.1123 38.5586 68.9957C38.5586 71.8791 39.704 74.6444 41.7429 76.6832C43.7817 78.7221 46.547 79.8675 49.4304 79.8675V79.8675ZM64.6509 64.647C65.511 64.647 66.3518 64.902 67.0669 65.3799C67.7821 65.8577 68.3394 66.5369 68.6686 67.3315C68.9977 68.1261 69.0838 69.0005 68.9161 69.8441C68.7483 70.6877 68.3341 71.4625 67.7259 72.0707C67.1177 72.6789 66.3429 73.0931 65.4993 73.2609C64.6557 73.4286 63.7813 73.3425 62.9867 73.0134C62.1921 72.6842 61.5129 72.1269 61.0351 71.4117C60.5572 70.6966 60.3022 69.8558 60.3022 68.9957C60.3022 67.8423 60.7603 66.7362 61.5759 65.9207C62.3914 65.1051 63.4975 64.647 64.6509 64.647V64.647ZM50.5176 64.647C51.3777 64.647 52.2184 64.902 52.9336 65.3799C53.6487 65.8577 54.2061 66.5369 54.5353 67.3315C54.8644 68.1261 54.9505 69.0005 54.7827 69.8441C54.6149 70.6877 54.2007 71.4625 53.5926 72.0707C52.9844 72.6789 52.2095 73.0931 51.366 73.2609C50.5224 73.4286 49.648 73.3425 48.8534 73.0134C48.0588 72.6842 47.3796 72.1269 46.9017 71.4117C46.4239 70.6966 46.1688 69.8558 46.1688 68.9957C46.1688 67.8423 46.627 66.7362 47.4426 65.9207C48.2581 65.1051 49.3642 64.647 50.5176 64.647Z" fill="#302CFF"/>
<path d="M86.3945 108.134C89.2779 108.134 92.0431 106.989 94.082 104.95C96.1209 102.911 97.2663 100.146 97.2663 97.2625C97.2663 94.3792 96.1209 91.6139 94.082 89.575C92.0431 87.5362 89.2779 86.3907 86.3945 86.3907H49.4304C46.547 86.3907 43.7817 87.5362 41.7429 89.575C39.704 91.6139 38.5586 94.3792 38.5586 97.2625C38.5586 100.146 39.704 102.911 41.7429 104.95C43.7817 106.989 46.547 108.134 49.4304 108.134H86.3945ZM64.6509 92.9138C65.511 92.9138 66.3518 93.1689 67.0669 93.6467C67.7821 94.1246 68.3394 94.8037 68.6686 95.5984C68.9977 96.393 69.0838 97.2674 68.9161 98.1109C68.7483 98.9545 68.3341 99.7294 67.7259 100.338C67.1177 100.946 66.3429 101.36 65.4993 101.528C64.6557 101.695 63.7813 101.609 62.9867 101.28C62.1921 100.951 61.5129 100.394 61.0351 99.6786C60.5572 98.9634 60.3022 98.1226 60.3022 97.2625C60.3022 96.1092 60.7603 95.0031 61.5759 94.1875C62.3914 93.372 63.4975 92.9138 64.6509 92.9138V92.9138ZM50.5176 92.9138C51.3777 92.9138 52.2184 93.1689 52.9336 93.6467C53.6487 94.1246 54.2061 94.8037 54.5353 95.5984C54.8644 96.393 54.9505 97.2674 54.7827 98.1109C54.6149 98.9545 54.2007 99.7294 53.5926 100.338C52.9844 100.946 52.2095 101.36 51.366 101.528C50.5224 101.695 49.648 101.609 48.8534 101.28C48.0588 100.951 47.3796 100.394 46.9017 99.6786C46.4239 98.9634 46.1688 98.1226 46.1688 97.2625C46.1688 96.1092 46.627 95.0031 47.4426 94.1875C48.2581 93.372 49.3642 92.9138 50.5176 92.9138Z" fill="#302CFF"/>
<rect opacity="0.1" width="138" height="138" fill="#302CFF"/>
</svg>
