<svg width="138" height="138" xmlns="http://www.w3.org/2000/svg" xmlns:xlink="http://www.w3.org/1999/xlink" xml:space="preserve" overflow="hidden"><defs><clipPath id="clip0"><rect x="0" y="0" width="138" height="138"/></clipPath></defs><g clip-path="url(#clip0)"><path d="M94.1926 27.8987C100.82 27.8987 106.193 33.2713 106.193 39.8987L106.193 89.8584C106.193 96.4858 100.82 101.858 94.1926 101.858L31.7441 101.858C25.1167 101.858 19.7441 96.4858 19.7441 89.8584L19.7441 39.8987C19.7441 33.2713 25.1167 27.8987 31.7441 27.8987Z" fill="#FFC000" fill-opacity="0.28"/><path d="M36.0916 40.8094C36.0916 43.6314 33.8038 45.9192 30.9818 45.9192 28.1598 45.9192 25.872 43.6314 25.872 40.8094 25.872 37.9874 28.1598 35.6996 30.9818 35.6996 33.8038 35.6996 36.0916 37.9874 36.0916 40.8094Z" fill="#FFC000"/><path d="M49.5301 40.8094C49.5301 43.6314 47.2423 45.9192 44.4203 45.9192 41.5983 45.9192 39.3105 43.6314 39.3105 40.8094 39.3105 37.9874 41.5983 35.6996 44.4203 35.6996 47.2423 35.6996 49.5301 37.9874 49.5301 40.8094Z" fill="#FFC000"/><path d="M62.9686 40.8094C62.9686 43.6314 60.6808 45.9192 57.8588 45.9192 55.0368 45.9192 52.749 43.6314 52.749 40.8094 52.749 37.9874 55.0368 35.6996 57.8588 35.6996 60.6808 35.6996 62.9686 37.9874 62.9686 40.8094Z" fill="#FFC000"/><path d="M118.257 82.4574C118.257 97.7248 105.88 110.101 90.6128 110.101 75.3454 110.101 62.9688 97.7248 62.9688 82.4574 62.9688 67.19 75.3454 54.8134 90.6128 54.8134 105.88 54.8134 118.257 67.19 118.257 82.4574Z" fill="#FFC000"/><path d="M81.861 76.3182 73.6758 82.4583 81.861 88.5983" stroke="#FFFFFF" stroke-width="3.78418" stroke-linecap="round" stroke-linejoin="round" fill="#FFC000"/><path d="M99.3633 76.3182 107.551 82.4583 99.3633 88.5983" stroke="#FFFFFF" stroke-width="3.78418" stroke-linecap="round" stroke-linejoin="round" fill="#FFC000"/><path d="M92.658 72.223 88.5654 92.6905" stroke="#FFFFFF" stroke-width="3.78418" stroke-linecap="round" stroke-linejoin="round" fill="#FFC000"/><path d="M0 0 138 0 138 138 0 138Z" fill="#FFC000" fill-opacity="0.1"/></g></svg>