<svg width="138" height="138" viewBox="0 0 138 138" fill="none" xmlns="http://www.w3.org/2000/svg">
<rect opacity="0.1" width="138" height="138" fill="#302CFF"/>
<rect x="26.7012" y="17.7617" width="84.5983" height="102.477" rx="12" fill="#302CFF"/>
<circle cx="36.0299" cy="27.2467" r="3.13925" fill="white"/>
<circle cx="44.2857" cy="27.2467" r="3.13925" fill="white"/>
<circle cx="52.5416" cy="27.2467" r="3.13925" fill="white"/>
<path d="M102.488 69.6538C102.487 66.5516 101.272 63.573 99.1024 61.3559C96.9327 59.1387 93.9811 57.8592 90.8797 57.7913C90.5599 57.7848 90.2521 57.6688 90.0077 57.4625C89.7633 57.2562 89.5972 56.9722 89.5371 56.6581C88.7425 52.4574 86.679 48.6014 83.6248 45.61C80.5707 42.6185 76.6727 40.6355 72.4564 39.9282C68.2402 39.2209 63.9085 39.8234 60.0453 41.6545C56.1821 43.4856 52.9733 46.4572 50.8515 50.1686C50.7368 50.3673 50.575 50.5346 50.3802 50.6559C50.1855 50.7771 49.9639 50.8484 49.735 50.8636C45.8673 51.1417 42.2486 52.8747 39.6073 55.7138C36.9661 58.5529 35.4985 62.2872 35.5 66.1648C35.5 79.5625 49.1377 81.4856 49.4559 81.5163H89.9642C93.4177 81.4899 96.7457 80.2183 99.337 77.9352C100.4 76.843 101.227 75.5447 101.769 74.1205C102.311 72.6963 102.556 71.1762 102.488 69.6538V69.6538ZM84.7084 69.5924L82.5508 73.1846C82.3656 73.5058 82.1183 73.7869 81.8232 74.0115C81.5282 74.236 81.1913 74.3996 80.8324 74.4925C80.4734 74.5854 80.0995 74.6059 79.7326 74.5527C79.3656 74.4995 79.013 74.3738 78.6951 74.1828C78.3773 73.9918 78.1008 73.7394 77.8816 73.4404C77.6624 73.1413 77.505 72.8016 77.4186 72.441C77.3321 72.0804 77.3184 71.7063 77.3782 71.3403C77.438 70.9744 77.5701 70.624 77.7668 70.3097L79.9215 66.7203C80.1101 66.406 80.3588 66.1319 80.6533 65.9137C80.9478 65.6955 81.2824 65.5374 81.638 65.4485C81.9936 65.3596 82.3632 65.3416 82.7258 65.3955C83.0884 65.4495 83.4367 65.5743 83.751 65.7629C84.0654 65.9515 84.3394 66.2001 84.5577 66.4947C84.7759 66.7892 84.9339 67.1238 85.0228 67.4794C85.1117 67.835 85.1297 68.2046 85.0758 68.5672C85.0218 68.9297 84.897 69.2781 84.7084 69.5924V69.5924ZM65.2763 70.1981L70.8586 61.8246C71.062 61.5196 71.3235 61.2577 71.6282 61.0538C71.9328 60.8499 72.2747 60.708 72.6342 60.6362C72.9936 60.5644 73.3638 60.5641 73.7234 60.6354C74.083 60.7066 74.425 60.848 74.73 61.0514C75.0349 61.2548 75.2968 61.5163 75.5007 61.821C75.7046 62.1256 75.8465 62.4675 75.9183 62.827C75.9901 63.1864 75.9904 63.5566 75.9192 63.9162C75.8479 64.2758 75.7065 64.6178 75.5031 64.9228L69.9208 73.2963C69.5099 73.9122 68.8712 74.3397 68.1452 74.4846C67.4192 74.6296 66.6653 74.4803 66.0494 74.0694C65.4335 73.6586 65.006 73.0199 64.861 72.2939C64.7161 71.5679 64.8654 70.814 65.2763 70.1981V70.1981Z" fill="white"/>
<rect x="61.8398" y="59.9119" width="28.245" height="16.2184" fill="white"/>
<path opacity="0.3" d="M93.4563 76.2639L90.4851 75.2102C90.0597 75.0589 89.6707 74.82 89.3435 74.5089C89.0162 74.1978 88.758 73.8215 88.5854 73.4042C88.4128 72.9869 88.3298 72.5381 88.3417 72.0867C88.3537 71.6354 88.4602 71.1915 88.6546 70.784L90.0064 67.9372C90.4995 66.8976 90.6589 65.731 90.4628 64.5972C90.2667 63.4635 89.7247 62.4181 88.9112 61.6045C88.0976 60.791 87.0522 60.249 85.9185 60.0529C84.7847 59.8568 83.6181 60.0162 82.5785 60.5093L79.7318 61.8635C79.3239 62.0569 78.8801 62.1627 78.4288 62.1739C77.9776 62.1851 77.529 62.1016 77.1121 61.9286C76.6952 61.7556 76.3192 61.4971 76.0084 61.1698C75.6976 60.8425 75.459 60.4536 75.3079 60.0282L74.2518 57.0594C73.8654 55.9757 73.1532 55.038 72.2128 54.3749C71.2725 53.7119 70.1501 53.356 68.9995 53.356C67.8489 53.356 66.7265 53.7119 65.7861 54.3749C64.8458 55.038 64.1336 55.9757 63.7472 57.0594L62.6911 60.0306C62.5397 60.4557 62.3009 60.8444 61.99 61.1714C61.6792 61.4985 61.3031 61.7568 60.8862 61.9295C60.4693 62.1022 60.0208 62.1856 59.5697 62.1742C59.1186 62.1629 58.6749 62.057 58.2672 61.8635L55.4205 60.5093C54.3809 60.0162 53.2143 59.8568 52.0805 60.0529C50.9468 60.249 49.9014 60.791 49.0878 61.6045C48.2742 62.4181 47.7323 63.4635 47.5362 64.5972C47.3401 65.731 47.4995 66.8976 47.9926 67.9372L49.3444 70.784C49.5384 71.1916 49.6447 71.6354 49.6564 72.0866C49.6681 72.5379 49.585 72.9866 49.4125 73.4038C49.24 73.8209 48.9819 74.1972 48.6548 74.5084C48.3278 74.8195 47.9391 75.0586 47.5139 75.2102L44.5427 76.2663C43.4587 76.6521 42.5207 77.3639 41.8573 78.3041C41.194 79.2443 40.8379 80.3668 40.8379 81.5174C40.8379 82.668 41.194 83.7905 41.8573 84.7306C42.5207 85.6708 43.4587 86.3827 44.5427 86.7685L47.5139 87.8246C47.939 87.9759 48.3277 88.2147 48.6547 88.5257C48.9817 88.8366 49.2399 89.2127 49.4124 89.6297C49.5849 90.0466 49.668 90.4952 49.6563 90.9463C49.6446 91.3974 49.5384 91.841 49.3444 92.2485L47.9926 95.0952C47.4995 96.1348 47.3401 97.3014 47.5362 98.4352C47.7323 99.569 48.2742 100.614 49.0878 101.428C49.9014 102.241 50.9468 102.783 52.0805 102.98C53.2143 103.176 54.3809 103.016 55.4205 102.523L58.2672 101.171C58.6748 100.977 59.1186 100.871 59.5699 100.859C60.0213 100.847 60.47 100.93 60.8871 101.103C61.3042 101.276 61.6803 101.534 61.9911 101.862C62.3019 102.189 62.5404 102.579 62.6911 103.004L63.7472 105.973C64.1336 107.057 64.8458 107.994 65.7861 108.657C66.7265 109.321 67.8489 109.676 68.9995 109.676C70.1501 109.676 71.2725 109.321 72.2128 108.657C73.1532 107.994 73.8654 107.057 74.2518 105.973L75.3079 103.002C75.4592 102.577 75.698 102.188 76.0089 101.861C76.3199 101.534 76.696 101.276 77.113 101.103C77.5299 100.931 77.9785 100.848 78.4296 100.859C78.8807 100.871 79.3243 100.977 79.7318 101.171L82.5785 102.523C83.6181 103.016 84.7847 103.176 85.9185 102.98C87.0522 102.783 88.0976 102.241 88.9112 101.428C89.7247 100.614 90.2667 99.569 90.4628 98.4352C90.6589 97.3014 90.4995 96.1348 90.0064 95.0952L88.6546 92.2485C88.4606 91.841 88.3544 91.3974 88.3427 90.9463C88.3309 90.4952 88.414 90.0466 88.5866 89.6297C88.7591 89.2127 89.0173 88.8366 89.3443 88.5257C89.6713 88.2147 90.06 87.9759 90.4851 87.8246L93.4563 86.7662C94.5403 86.3803 95.4783 85.6685 96.1417 84.7283C96.805 83.7881 97.1611 82.6657 97.1611 81.515C97.1611 80.3644 96.805 79.242 96.1417 78.3018C95.4783 77.3616 94.5403 76.6497 93.4563 76.2639V76.2639ZM68.9995 92.7437C66.7829 92.7115 64.6222 92.0432 62.7745 90.8184C60.9268 89.5935 59.4698 87.8636 58.577 85.8345C57.4354 83.0702 57.4367 79.966 58.5806 77.2027C59.7245 74.4393 61.9176 72.2424 64.6789 71.0937C67.4464 69.987 70.5368 70.0056 73.2907 71.1456C76.0447 72.2856 78.2441 74.4567 79.4196 77.1956C80.5612 79.9599 80.5599 83.0641 79.416 85.8274C78.2722 88.5908 76.0791 90.7877 73.3177 91.9363C71.9491 92.4993 70.4791 92.7741 68.9995 92.7437V92.7437Z" fill="white"/>
</svg>
